Simulation
nRows=47
nColumns=15
endheader
time  TH_x TH_y TH_z SC_y  SC_z  SC_x  AC_y  AC_z  AC_x  GH_y  GH_z  GH_yy  EL_x  PS_y
0.595  0.000000  0.000000  0.000000  -37.087366723306836  3.3722093519007754  5.055084420108988  55.943445858136016  8.403970708946767  -6.748561185604891  -3.4737212603729906  35.46330474341122  6.918270508744604  24.37738563201892  0.000000
0.6069  0.000000  0.000000  0.000000  -37.242197066317985  3.4665953738369373  5.204305343046763  56.03793740844082  8.564686377860493  -6.675215172245428  -3.087100678209478  36.22995189488269  6.290932840869985  24.230346312009257  0.000000
0.6187999999999999  0.000000  0.000000  0.000000  -37.40272681482985  3.564972848198299  5.3551051614906084  56.133646366512934  8.730024422378838  -6.596116878744869  -2.6953872497594875  36.97934905237776  5.685021219873852  24.07634935877738  0.000000
0.6306999999999999  0.000000  0.000000  0.000000  -37.57168774123807  3.666949496294568  5.508581270042362  56.231061467604825  8.899607832681957  -6.511456296387737  -2.3007740077977092  37.71176747331689  5.101864045617326  23.91617819053694  0.000000
0.6426  0.000000  0.000000  0.000000  -37.74819958481563  3.7723371382549806  5.66353904610005  56.33075327435644  9.0744724179865  -6.4202598621734985  -1.9050938405577924  38.42725203048125  4.542455367913237  23.750415767074468  0.000000
0.6545  0.000000  0.000000  0.000000  -37.93396570141766  3.8815597362910697  5.818052267855635  56.43268704313894  9.25672033253206  -6.321250014348113  -1.510522810125131  39.12554885780655  4.00820192945729  23.57967058818311  0.000000
0.6664  0.000000  0.000000  0.000000  -38.12721847626597  3.993648927168948  5.971831330618835  56.53704719117858  9.446782680113019  -6.214847955246862  -1.1194943499083942  39.8063929960529  3.5011064774134604  23.404879311030037  0.000000
0.6782999999999999  0.000000  0.000000  0.000000  -38.33017876757065  4.107081324443193  6.125607421352424  56.643975669848004  9.64469171394601  -6.1017340411693395  -0.7345025338287366  40.469718959764855  3.0232273828579963  23.22732312976911  0.000000
0.6901999999999999  0.000000  0.000000  0.000000  -38.54029030855922  4.221132539670086  6.278039874468604  56.75343442918206  9.851172358320392  -5.981871170673745  -0.35829758469494616  41.11456119930625  2.5759446036448073  23.047915296718283  0.000000
0.7021  0.000000  0.000000  0.000000  -38.75760172138017  4.336244617060417  6.427838600460632  56.8651129986572  10.067121208282698  -5.85511927830935  0.005972445794053517  41.739707860006135  2.1602269453229836  22.86716071336233  0.000000
0.714  0.000000  0.000000  0.000000  -38.97961961146638  4.451303087385701  6.574864514648894  56.978436707344386  10.292615699719319  -5.721165218835315  0.3552183035259915  42.34431254261957  1.77734899301264  22.68628347338075  0.000000
0.7259  0.000000  0.000000  0.000000  -39.20834991418659  4.565923384831829  6.721051515508259  57.09330310036246  10.526673928145762  -5.580031896618534  0.687577380533595  42.92780895880083  1.4278843639141552  22.506429491906086  0.000000
0.7377999999999999  0.000000  0.000000  0.000000  -39.44076611394824  4.681521125683304  6.866232674580928  57.20993236297897  10.768612741151909  -5.431963576093143  1.0019846525054932  43.48933799368936  1.1106515203880247  22.328171990683753  0.000000
0.7496999999999999  0.000000  0.000000  0.000000  -39.67728380288854  4.800002159158569  7.010400847141237  57.32737713468776  11.018104714306938  -5.276707812900787  1.2976676441152761  44.02884132576792  0.8247311698921588  22.152430619825612  0.000000
0.7615999999999999  0.000000  0.000000  0.000000  -39.9155277291668  4.92164479444975  7.153643458145487  57.44483920396595  11.274624527272195  -5.113832871556411  1.5736087829515528  44.546906716377926  0.5695415257897734  21.980383670815634  0.000000
0.7735  0.000000  0.000000  0.000000  -40.15703077633813  5.047110169547606  7.297045193685852  57.56220255718947  11.537502384585618  -4.9436069145708155  1.8288178723241846  45.044315999023105  0.34418090473771307  21.812888330116465  0.000000
0.7854  0.000000  0.000000  0.000000  -40.39971790297172  5.176501009293159  7.441070369044199  57.679349575112305  11.805958422306322  -4.766134389128439  2.0622765024809  45.52191704927359  0.14792294342588116  21.650889965887306  0.000000
0.7972999999999999  0.000000  0.000000  0.000000  -40.645349883881586  5.310296626076926  7.587204886761993  57.796137992073824  12.079067230243224  -4.581598880546757  2.2730858345096454  45.98055327654554  -0.020595663766391235  21.495214132897694  0.000000
0.8091999999999999  0.000000  0.000000  0.000000  -40.89190483227182  5.448375748477364  7.736230275788433  57.912705837877546  12.355763094948209  -4.390512122314145  2.4604964023965197  46.42114986073727  -0.1628017690361469  21.346530879516017  0.000000
0.8210999999999999  0.000000  0.000000  0.000000  -41.14118077866995  5.591132912629994  7.889962337121949  58.02891983568081  12.634787159169786  -4.193329849399885  2.623891399561974  46.84456984397692  -0.28007186371681636  21.205572500265347  0.000000
0.833  0.000000  0.000000  0.000000  -41.39118925797639  5.738315833384659  8.049315968337005  58.144913073635855  12.914794593628406  -3.9907959735188276  2.7630079252173654  47.25171985842913  -0.3743540046616815  21.072909262842856  0.000000
0.8449  0.000000  0.000000  0.000000  -41.644021939334436  5.889993219314702  8.21677662013397  58.26071316866742  13.193888584753507  -3.7837909036205217  2.877861650584106  47.64351304553775  -0.4474433321680601  20.949142573899536  0.000000
0.8567999999999999  0.000000  0.000000  0.000000  -41.89787753156188  6.0456602835621  8.394079447155384  58.376660722106834  13.469947678409392  -3.5735836768392995  2.968748172005176  48.0208600031088  -0.5012133428247452  20.834758138673152  0.000000
0.8686999999999999  0.000000  0.000000  0.000000  -42.154578776023214  6.205719698776145  8.58350287798445  58.492791610157596  13.741005472647798  -3.361228759306764  3.036099106185051  48.38436744633415  -0.5373573135450742  20.73018795134118  0.000000
0.8805999999999999  0.000000  0.000000  0.000000  -42.41214095834235  6.36977171967396  8.786333906568387  58.60931027114999  14.005003600500688  -3.147938903768269  3.0808041748676427  48.73461249585386  -0.557880744201241  20.635767363537774  0.000000
0.8925  0.000000  0.000000  0.000000  -42.672773986595146  6.537442041724404  9.004912297171574  58.726632899113234  14.25983199217785  -2.9350981070791287  3.1040937131786213  49.07216119228673  -0.5647861892340439  20.551659435982558  0.000000
0.9044  0.000000  0.000000  0.000000  -42.93460328945321  6.707290491719222  9.240470238879215  58.845436655703814  14.503380373524756  -2.7243661920757467  3.107458464992513  49.397472051922065  -0.5602820212119746  20.477712437530467  0.000000
0.9162999999999999  0.000000  0.000000  0.000000  -43.199087643637185  6.878630238566931  9.495005804465377  58.96596091094606  14.733564028150534  -2.5174322116289813  3.092022362152459  49.710458183217405  -0.545510757396269  20.413997029609522  0.000000
0.9281999999999999  0.000000  0.000000  0.000000  -43.46298189173967  7.0503286047661575  9.768160202260358  59.08822067351199  14.949381521736083  -2.315820012650205  3.0590484560081888  50.01024401920749  -0.5214987168273523  20.36075039786411  0.000000
0.9400999999999999  0.000000  0.000000  0.000000  -43.72706869198942  7.221780189940892  10.059938149545603  59.212208512836895  15.150500189784344  -2.120507119527679  3.0110841576379266  50.29527249636935  -0.4902364628623158  20.317471241059458  0.000000
0.952  0.000000  0.000000  0.000000  -43.987713906620336  7.3916915325277275  10.369850716340578  59.33777386459425  15.335780083312127  -1.9331751175484553  2.952181816086022  50.563573612792084  -0.4548112726160993  20.283403247438084  0.000000
0.9639  0.000000  0.000000  0.000000  -44.24451364876031  7.559450799452961  10.698275414422755  59.464335880327106  15.504019348399389  -1.756021830003757  2.886516577386401  50.81269880617085  -0.4176703884565204  20.258063055871343  0.000000
0.9757999999999999  0.000000  0.000000  0.000000  -44.49229680651155  7.723288205976045  11.043578721581058  59.59079516303609  15.654227307783893  -1.59106348228287  2.8183328888859704  51.04016385092669  -0.38080183568083253  20.240936170343883  0.000000
0.9876999999999999  0.000000  0.000000  0.000000  -44.72936880272297  7.882212591728555  11.405707348124844  59.716398969232955  15.784833277443816  -1.441082453040012  2.751560096160436  51.24285187962802  -0.345805084811304  20.230884193202638  0.000000
0.9995999999999999  0.000000  0.000000  0.000000  -44.94917534037838  8.034084902983949  11.783171001328874  59.84045623163112  15.894029984892613  -1.3092788239479718  2.689946759915522  51.41766977968072  -0.31361410349950003  20.226228594798556  0.000000
1.0114999999999998  0.000000  0.000000  0.000000  -45.14950083148758  8.177398911447343  12.174513138268134  59.96174526460334  15.981176958307548  -1.1981000453714903  2.637627584631197  51.560746231297955  -0.28430153048036444  20.225732441917888  0.000000
1.0233999999999999  0.000000  0.000000  0.000000  -45.324454204435234  8.310736416954995  12.575245317713268  60.07918185025666  16.046032710293964  -1.1101447161410345  2.599810839089088  51.66785176932206  -0.2587683309261492  20.228516097209397  0.000000
1.0352999999999999  0.000000  0.000000  0.000000  -45.47300260050406  8.432783877889026  12.981625689353782  60.19164573023244  16.089703765004238  -1.0475797203170378  2.5824726813986834  51.733335170080416  -0.23774646836842278  20.23334270776866  0.000000
1.0472  0.000000  0.000000  0.000000  -45.58968226544222  8.54004309844222  13.386453518674886  60.297790493067815  16.114640433391294  -1.013226271636486  2.5928054181411295  51.75209196567645  -0.22327990224965755  20.238642438686025  0.000000
1.0591  0.000000  0.000000  0.000000  -45.673497352127995  8.629388738942668  13.783172015974309  60.39673807272804  16.124020039076868  -1.009929055479173  2.638812507290145  51.71827582174628  -0.2184682440735612  20.241277491838797  0.000000
1.071  0.000000  0.000000  0.000000  -45.71860081139329  8.696843961295174  14.16038109898601  60.48595449112722  16.122887344748253  -1.0383749693321909  2.7291667058080313  51.62647861017974  -0.22697259399876063  20.238300131964863  0.000000
1.0829  0.000000  0.000000  0.000000  -45.722318532603246  8.740404041826185  14.506527542113881  60.5617019912736  16.118158837947426  -1.0986556287371925  2.872490087416995  51.47058944688827  -0.24850187297261778  20.227837534731187  0.000000
1.0948  0.000000  0.000000  0.000000  -45.67616050550261  8.7595373986209  14.807329138009944  60.62200537113639  16.11593459394988  -1.1933531413746727  3.077363746646879  51.245248753140544  -0.2848014418900562  20.20729052795784  0.000000
1.1067  0.000000  0.000000  0.000000  -45.57640531388012  8.751586197917321  15.055549626038799  60.66797260075979  16.117387275167165  -1.326698097966407  3.3497565114380508  50.94662131728978  -0.3396751507048019  20.173849771479752  0.000000
1.1185999999999998  0.000000  0.000000  0.000000  -45.418152336716126  8.707149028110084  15.2446131258164  60.701559527284246  16.121034378032604  -1.5016824336589758  3.6940577553924796  50.575607655074975  -0.4158741458182339  20.12830932945291  0.000000
1.1304999999999998  0.000000  0.000000  0.000000  -45.20640182648469  8.618703245936583  15.37247931800481  60.72596229938546  16.121821615230676  -1.716826105814753  4.116666501937794  50.13414823725452  -0.5179937992985748  20.071041778965597  0.000000
1.1423999999999999  0.000000  0.000000  0.000000  -44.947130021871224  8.48303030485119  15.43799060776211  60.74676349814809  16.10764624397652  -1.9661509846789478  4.621695687503419  49.627473114345946  -0.651371088246114  20.008649882363624  0.000000
